<svg xmlns="http://www.w3.org/2000/svg" viewBox="0 0 800 450" fill="none">
  <defs>
    <linearGradient id="dbg" x1="0" y1="0" x2="800" y2="450">
      <stop offset="0%" stop-color="#0f172a"/>
      <stop offset="100%" stop-color="#1e293b"/>
    </linearGradient>
  </defs>

  <rect width="800" height="450" fill="url(#dbg)"/>

  <g opacity="0.04">
    <line x1="100" y1="0" x2="100" y2="450" stroke="#fff" stroke-width="1"/>
    <line x1="200" y1="0" x2="200" y2="450" stroke="#fff" stroke-width="1"/>
    <line x1="300" y1="0" x2="300" y2="450" stroke="#fff" stroke-width="1"/>
    <line x1="400" y1="0" x2="400" y2="450" stroke="#fff" stroke-width="1"/>
    <line x1="500" y1="0" x2="500" y2="450" stroke="#fff" stroke-width="1"/>
    <line x1="600" y1="0" x2="600" y2="450" stroke="#fff" stroke-width="1"/>
    <line x1="700" y1="0" x2="700" y2="450" stroke="#fff" stroke-width="1"/>
  </g>

  <!-- Left: web app -->
  <rect x="60" y="48" width="440" height="350" rx="10" fill="#1e293b" stroke="#334155" stroke-width="1"/>
  <rect x="60" y="48" width="440" height="34" rx="10" fill="#1e293b"/>
  <rect x="60" y="77" width="440" height="1" fill="#334155"/>
  <circle cx="80" cy="65" r="4" fill="#ef4444" opacity="0.45"/>
  <circle cx="94" cy="65" r="4" fill="#eab308" opacity="0.45"/>
  <circle cx="108" cy="65" r="4" fill="#22c55e" opacity="0.45"/>
  <rect x="128" y="57" width="180" height="16" rx="4" fill="#0f172a"/>
  <text x="138" y="69" fill="#64748b" font-family="monospace" font-size="8">directorio · perfiles</text>
  <rect x="424" y="57" width="60" height="16" rx="4" fill="#8b5cf6" opacity="0.15"/>
  <text x="454" y="69" fill="#8b5cf6" font-family="monospace" font-size="7" text-anchor="middle" opacity="0.9">instalar</text>

  <!-- Country / city filters -->
  <g font-family="monospace" font-size="7.5">
    <rect x="76" y="96" width="58" height="20" rx="10" fill="#8b5cf6" opacity="0.15"/>
    <text x="105" y="110" fill="#8b5cf6" text-anchor="middle" opacity="0.9">Ecuador</text>
    <rect x="140" y="96" width="52" height="20" rx="10" fill="#fff" opacity="0.03"/>
    <text x="166" y="110" fill="#64748b" text-anchor="middle">Perú</text>
    <rect x="198" y="96" width="66" height="20" rx="10" fill="#fff" opacity="0.03"/>
    <text x="231" y="110" fill="#64748b" text-anchor="middle">Colombia</text>
    <rect x="270" y="96" width="52" height="20" rx="10" fill="#fff" opacity="0.03"/>
    <text x="296" y="110" fill="#64748b" text-anchor="middle">Chile</text>
    <rect x="328" y="96" width="40" height="20" rx="10" fill="#fff" opacity="0.03"/>
    <text x="348" y="110" fill="#64748b" text-anchor="middle">+16</text>
  </g>

  <!-- Profile cards grid -->
  <g>
    <!-- Card 1 -->
    <rect x="76" y="128" width="128" height="116" rx="8" fill="#0f172a" stroke="#334155" stroke-width="0.5"/>
    <rect x="76" y="128" width="128" height="56" rx="8" fill="#8b5cf6" opacity="0.08"/>
    <circle cx="140" cy="156" r="18" fill="#8b5cf6" opacity="0.25"/>
    <circle cx="140" cy="150" r="6" fill="#8b5cf6" opacity="0.45"/>
    <path d="M129 168 a11 9 0 0 1 22 0" fill="#8b5cf6" opacity="0.45"/>
    <rect x="88" y="194" width="72" height="7" rx="3" fill="#fff" opacity="0.12"/>
    <rect x="88" y="206" width="48" height="6" rx="3" fill="#fff" opacity="0.06"/>
    <rect x="88" y="222" width="42" height="14" rx="7" fill="#22c55e" opacity="0.15"/>
    <text x="109" y="232" fill="#22c55e" font-family="monospace" font-size="6.5" text-anchor="middle">libre</text>
    <text x="180" y="232" fill="#eab308" font-family="monospace" font-size="7" text-anchor="middle">★ 4.8</text>

    <!-- Card 2 -->
    <rect x="216" y="128" width="128" height="116" rx="8" fill="#0f172a" stroke="#334155" stroke-width="0.5"/>
    <rect x="216" y="128" width="128" height="56" rx="8" fill="#ec4899" opacity="0.08"/>
    <circle cx="280" cy="156" r="18" fill="#ec4899" opacity="0.25"/>
    <circle cx="280" cy="150" r="6" fill="#ec4899" opacity="0.45"/>
    <path d="M269 168 a11 9 0 0 1 22 0" fill="#ec4899" opacity="0.45"/>
    <rect x="228" y="194" width="64" height="7" rx="3" fill="#fff" opacity="0.12"/>
    <rect x="228" y="206" width="52" height="6" rx="3" fill="#fff" opacity="0.06"/>
    <rect x="228" y="222" width="52" height="14" rx="7" fill="#eab308" opacity="0.15"/>
    <text x="254" y="232" fill="#eab308" font-family="monospace" font-size="6.5" text-anchor="middle">ocupado</text>
    <text x="320" y="232" fill="#eab308" font-family="monospace" font-size="7" text-anchor="middle">★ 4.6</text>

    <!-- Card 3 -->
    <rect x="356" y="128" width="128" height="116" rx="8" fill="#0f172a" stroke="#334155" stroke-width="0.5"/>
    <rect x="356" y="128" width="128" height="56" rx="8" fill="#8b5cf6" opacity="0.08"/>
    <circle cx="420" cy="156" r="18" fill="#8b5cf6" opacity="0.25"/>
    <circle cx="420" cy="150" r="6" fill="#8b5cf6" opacity="0.45"/>
    <path d="M409 168 a11 9 0 0 1 22 0" fill="#8b5cf6" opacity="0.45"/>
    <rect x="368" y="194" width="76" height="7" rx="3" fill="#fff" opacity="0.12"/>
    <rect x="368" y="206" width="44" height="6" rx="3" fill="#fff" opacity="0.06"/>
    <rect x="368" y="222" width="42" height="14" rx="7" fill="#22c55e" opacity="0.15"/>
    <text x="389" y="232" fill="#22c55e" font-family="monospace" font-size="6.5" text-anchor="middle">libre</text>
    <text x="460" y="232" fill="#eab308" font-family="monospace" font-size="7" text-anchor="middle">★ 4.9</text>
  </g>

  <!-- Community feed -->
  <rect x="76" y="256" width="248" height="124" rx="8" fill="#0f172a" stroke="#334155" stroke-width="0.5"/>
  <text x="88" y="274" fill="#94a3b8" font-family="monospace" font-size="8" opacity="0.5">comunidad · anónimo</text>
  <g>
    <rect x="88" y="284" width="224" height="26" rx="5" fill="#fff" opacity="0.03"/>
    <circle cx="102" cy="297" r="6" fill="#475569" opacity="0.6"/>
    <rect x="116" y="291" width="130" height="5" rx="2.5" fill="#fff" opacity="0.1"/>
    <rect x="116" y="300" width="90" height="4" rx="2" fill="#fff" opacity="0.05"/>

    <rect x="88" y="314" width="224" height="26" rx="5" fill="#fff" opacity="0.03"/>
    <circle cx="102" cy="327" r="6" fill="#475569" opacity="0.6"/>
    <rect x="116" y="321" width="112" height="5" rx="2.5" fill="#fff" opacity="0.1"/>
    <rect x="116" y="330" width="140" height="4" rx="2" fill="#fff" opacity="0.05"/>

    <rect x="88" y="344" width="224" height="26" rx="5" fill="#fff" opacity="0.03"/>
    <circle cx="102" cy="357" r="6" fill="#475569" opacity="0.6"/>
    <rect x="116" y="351" width="146" height="5" rx="2.5" fill="#fff" opacity="0.1"/>
    <rect x="116" y="360" width="76" height="4" rx="2" fill="#fff" opacity="0.05"/>
  </g>

  <!-- Moderation panel -->
  <rect x="336" y="256" width="148" height="124" rx="8" fill="#0f172a" stroke="#334155" stroke-width="0.5"/>
  <text x="348" y="274" fill="#94a3b8" font-family="monospace" font-size="8" opacity="0.5">moderación</text>
  <g font-family="monospace" font-size="7">
    <rect x="348" y="284" width="124" height="20" rx="4" fill="#fff" opacity="0.03"/>
    <text x="356" y="297" fill="#64748b">reportes</text>
    <text x="464" y="297" fill="#ef4444" text-anchor="end" opacity="0.8">3</text>

    <rect x="348" y="308" width="124" height="20" rx="4" fill="#fff" opacity="0.03"/>
    <text x="356" y="321" fill="#64748b">por revisar</text>
    <text x="464" y="321" fill="#eab308" text-anchor="end" opacity="0.8">7</text>

    <rect x="348" y="332" width="124" height="20" rx="4" fill="#fff" opacity="0.03"/>
    <text x="356" y="345" fill="#64748b">aprobados</text>
    <text x="464" y="345" fill="#22c55e" text-anchor="end" opacity="0.8">248</text>
  </g>
  <rect x="348" y="356" width="124" height="16" rx="4" fill="#8b5cf6" opacity="0.12"/>
  <text x="410" y="367" fill="#8b5cf6" font-family="monospace" font-size="7" text-anchor="middle" opacity="0.85">wizard por pasos</text>

  <!-- Right: phone -->
  <rect x="546" y="70" width="176" height="306" rx="22" fill="#1e293b" stroke="#334155" stroke-width="1.5"/>
  <rect x="558" y="86" width="152" height="274" rx="14" fill="#0f172a"/>
  <rect x="614" y="76" width="40" height="6" rx="3" fill="#334155"/>

  <!-- Phone content -->
  <rect x="570" y="100" width="128" height="20" rx="6" fill="#8b5cf6" opacity="0.12"/>
  <text x="634" y="114" fill="#8b5cf6" font-family="monospace" font-size="7.5" text-anchor="middle" opacity="0.9">APK Android</text>

  <g>
    <rect x="570" y="130" width="128" height="52" rx="8" fill="#1e293b"/>
    <circle cx="592" cy="150" r="11" fill="#8b5cf6" opacity="0.25"/>
    <rect x="610" y="143" width="64" height="6" rx="3" fill="#fff" opacity="0.12"/>
    <rect x="610" y="154" width="42" height="5" rx="2.5" fill="#fff" opacity="0.06"/>
    <rect x="580" y="166" width="36" height="10" rx="5" fill="#22c55e" opacity="0.15"/>
    <text x="598" y="174" fill="#22c55e" font-family="monospace" font-size="5.5" text-anchor="middle">libre</text>

    <rect x="570" y="190" width="128" height="52" rx="8" fill="#1e293b"/>
    <circle cx="592" cy="210" r="11" fill="#ec4899" opacity="0.25"/>
    <rect x="610" y="203" width="56" height="6" rx="3" fill="#fff" opacity="0.12"/>
    <rect x="610" y="214" width="48" height="5" rx="2.5" fill="#fff" opacity="0.06"/>
    <rect x="580" y="226" width="48" height="10" rx="5" fill="#eab308" opacity="0.15"/>
    <text x="604" y="234" fill="#eab308" font-family="monospace" font-size="5.5" text-anchor="middle">ocupado</text>

    <rect x="570" y="250" width="128" height="52" rx="8" fill="#1e293b"/>
    <circle cx="592" cy="270" r="11" fill="#8b5cf6" opacity="0.25"/>
    <rect x="610" y="263" width="60" height="6" rx="3" fill="#fff" opacity="0.12"/>
    <rect x="610" y="274" width="38" height="5" rx="2.5" fill="#fff" opacity="0.06"/>
    <rect x="580" y="286" width="36" height="10" rx="5" fill="#22c55e" opacity="0.15"/>
    <text x="598" y="294" fill="#22c55e" font-family="monospace" font-size="5.5" text-anchor="middle">libre</text>
  </g>

  <!-- Phone bottom nav -->
  <rect x="570" y="312" width="128" height="32" rx="8" fill="#1e293b"/>
  <circle cx="596" cy="328" r="5" fill="#8b5cf6" opacity="0.7"/>
  <circle cx="634" cy="328" r="5" fill="#475569" opacity="0.7"/>
  <circle cx="672" cy="328" r="5" fill="#475569" opacity="0.7"/>

  <text x="400" y="425" fill="#94a3b8" font-family="system-ui, sans-serif" font-size="13" text-anchor="middle" letter-spacing="2" opacity="0.5">DIRECTORIO — Perfiles y reservas multi-país</text>
</svg>
